<?xml version="1.0" encoding="UTF-8" standalone="no"?>
<!-- Created with Inkscape (http://www.inkscape.org/) -->
<svg
   xmlns:dc="http://purl.org/dc/elements/1.1/"
   xmlns:cc="http://web.resource.org/cc/"
   xmlns:rdf="http://www.w3.org/1999/02/22-rdf-syntax-ns#"
   xmlns:svg="http://www.w3.org/2000/svg"
   xmlns="http://www.w3.org/2000/svg"
   xmlns:sodipodi="http://sodipodi.sourceforge.net/DTD/sodipodi-0.dtd"
   xmlns:inkscape="http://www.inkscape.org/namespaces/inkscape"
   width="400"
   height="415"
   id="svg2194"
   sodipodi:version="0.32"
   inkscape:version="0.44.1"
   version="1.0"
   inkscape:export-filename="ddrosario"
   inkscape:export-xdpi="90"
   inkscape:export-ydpi="90"
   sodipodi:docbase="D:\Mis documentos\Agustín\-_-Imágenes"
   sodipodi:docname="Distritos de Rosario.svg">
  <defs
     id="defs2196" />
  <sodipodi:namedview
     id="base"
     pagecolor="#ffffff"
     bordercolor="#666666"
     borderopacity="1.0"
     inkscape:pageopacity="0.0"
     inkscape:pageshadow="2"
     inkscape:zoom="0.7"
     inkscape:cx="353.10603"
     inkscape:cy="281.63838"
     inkscape:document-units="px"
     inkscape:current-layer="layer1"
     width="400px"
     height="415px"
     inkscape:window-width="800"
     inkscape:window-height="544"
     inkscape:window-x="-4"
     inkscape:window-y="-4" />
  <metadata
     id="metadata2199">
    <rdf:RDF>
      <cc:Work
         rdf:about="">
        <dc:format>image/svg+xml</dc:format>
        <dc:type
           rdf:resource="http://purl.org/dc/dcmitype/StillImage" />
      </cc:Work>
    </rdf:RDF>
  </metadata>
  <g
     inkscape:label="Capa 1"
     inkscape:groupmode="layer"
     id="layer1">
    <path
       style="font-size:12px;fill:#fde18b;fill-opacity:1;fill-rule:evenodd;stroke:black;stroke-width:0.90017569px;stroke-linecap:butt;stroke-linejoin:miter;stroke-opacity:1"
       d="M 89.716879,203.88095 L 89.968179,236.10244 L 142.48966,236.10244 L 135.20199,275.17416 L 149.27474,330.7372 L 159.3267,330.99091 C 165.06338,343.73147 166.97764,358.12594 176.91763,369.04778 C 188.45718,371.82985 194.46894,391.77791 200.53974,403.29897 C 211.67169,401.64757 211.54373,397.15417 215.36639,393.6579 L 218.88457,274.15931 L 226.92614,248.78807 L 262.108,257.41429 L 270.90346,214.02945 L 216.74853,200.8364 L 176.54191,199.38666 L 163.97573,198.93356 L 163.97573,206.92551 L 138.34322,206.92551 L 138.34322,204.00781 L 89.716879,203.88095 z "
       id="path67874"
       sodipodi:nodetypes="cccccccccccccccccccc" />
    <path
       style="fill:#f99e7e;fill-opacity:1;fill-rule:evenodd;stroke:black;stroke-width:0.90017569px;stroke-linecap:butt;stroke-linejoin:miter;stroke-opacity:1"
       d="M 215.61768,393.6579 L 218.75892,274.28617 L 226.92614,248.78807 L 271.90865,259.95141 L 259.72065,305.74652 L 285.4788,335.68459 L 274.296,381.60655 C 271.65736,382.2714 269.01871,380.25497 266.38007,379.57685 C 252.60233,381.0979 240.8261,381.27179 225.0414,384.14368 C 221.88932,386.70186 218.37855,389.17958 218.13067,392.38933 L 215.61768,393.6579 z "
       id="path68779"
       sodipodi:nodetypes="ccccccccccc" />
    <path
       style="fill:#7a84ea;fill-rule:evenodd;stroke-width:1px;stroke-linecap:butt;stroke-linejoin:miter;stroke-opacity:1"
       d="M 202.71875 -62.53125 C 206.75654 -47.06258 235.28775 -0.24165975 236.34375 9.40625 C 237.42705 19.303671 229.48471 24.299303 230.53125 31.625 C 140.44334 39.673991 337.30515 324.05512 356.0625 323.90625 C 370.8531 347.2168 390.39551 361.27552 422.25 351.40625 C 454.0188 302.75034 478.36443 209.26727 437.375 196.90625 C 431.90999 195.25819 415.29209 195.53979 401.375 192.53125 C 397.40516 192.35036 385.53199 190.875 384.6875 190.875 C 383.77902 190.875 382.87725 190.875 381.96875 190.875 C 380.79909 190.875 380.34911 190.53381 379.40625 190.25 C 378.6332 190.01731 378.06221 189.35089 377.53125 189.03125 C 376.70103 188.53146 375.77381 188.18426 375.15625 187.8125 C 374.21268 187.24445 373.51155 186.19072 372.78125 185.53125 C 372.13995 184.95217 371.43673 184.57277 370.90625 184.09375 C 370.18401 183.44156 369.43096 183.2285 368.84375 182.875 C 368.19893 182.48681 367.835 181.6586 367.15625 181.25 C 366.44075 180.81927 365.31978 179.02275 364.9375 178.5625 C 364.24136 177.72433 363.99954 177.24557 363.40625 176.53125 C 362.76513 175.75934 362.0108 174.31024 361.875 173.65625 C 361.77177 173.15908 360.71894 172.04547 360.34375 171.59375 C 359.55139 170.63973 358.73193 168.76746 358.46875 167.5 C 358.36099 166.98099 356.80487 165.51181 356.25 164.84375 C 355.70678 164.18971 355.50339 163.31207 355.0625 162.78125 C 354.49639 162.09966 353.88803 160.84094 353.53125 160.125 C 353.01096 159.08094 352.35763 157.9697 351.65625 156.84375 C 351.10492 155.95868 350.41476 155.14116 349.9375 154.375 C 349.291 153.33712 348.71232 152.68863 348.0625 151.90625 C 347.49435 151.22218 346.53034 150.45746 346.03125 149.65625 C 345.44209 148.71045 344.81051 148.39321 344.3125 147.59375 C 343.84997 146.85121 343.12027 146.4544 342.625 146.15625 C 342.11543 145.84949 341.25844 144.95528 340.90625 144.53125 C 340.65971 144.2344 338.83253 143.46261 338.53125 143.28125 C 338.25775 143.1166 337.97142 143.01173 337.6875 142.875 C 336.90454 142.49792 336.17751 141.53016 335.625 141.03125 C 335.08655 140.54502 334.92576 140.36211 334.625 140 C 333.65031 139.11986 332.5447 139.55694 331.71875 138.5625 C 331.14646 137.87347 330.60072 137.40438 330.03125 136.71875 C 329.39045 135.94721 328.97281 135.44977 328.65625 134.6875 C 328.39328 134.05424 327.47692 133.26746 327.125 132.84375 C 326.2278 131.7635 325.82743 131.5337 325.25 130.375 C 324.7757 129.42323 324.28372 129.10918 323.875 128.125 C 323.2969 126.73292 322.70862 126.41232 322.1875 124.84375 C 321.85164 123.83275 321.37222 123.63384 321.15625 122.59375 C 320.88858 121.30465 320.46876 120.99465 320.46875 119.5 C 320.46875 118.04676 320.81251 116.91761 320.8125 115.59375 C 320.81251 114.45043 321.14997 113.07288 321.34375 111.90625 C 321.52747 110.80036 321.65626 109.82477 321.65625 108.625 C 321.65625 106.90632 321.04168 106.10807 320.3125 104.9375 C 319.68678 103.93301 319.22923 102.82763 318.59375 102.0625 C 317.89162 101.21714 317.18759 99.316473 316.71875 98.1875 C 316.20718 96.9556 315.89818 95.956093 315.375 94.90625 C 315.23664 94.6286 315.05634 93.777023 315.03125 93.65625 C 315.00617 93.53548 315.19967 93.181683 315.03125 92.84375 C 314.86284 92.50582 314.84376 90.761703 314.84375 89.5625 C 314.84375 88.47794 314.36178 87.308043 314.1875 86.46875 C 314.00982 85.61305 313.12106 84.555493 312.8125 83.8125 C 312.32487 82.63827 311.79836 82.212693 311.4375 81.34375 C 311.12046 80.58034 310.93029 78.959683 310.78125 78.0625 C 310.63773 77.19857 310.18976 76.495173 309.90625 75.8125 C 309.60083 75.07703 308.86944 74.415223 308.375 73.96875 C 307.84204 73.48748 307.08486 71.790923 306.6875 71.3125 C 306.28791 70.83141 306.01193 69.653693 305.84375 68.84375 C 305.62407 67.78578 304.53841 66.632403 304.125 65.96875 C 303.58459 65.10119 303.17782 64.788793 302.75 64.53125 C 302.11366 64.14817 301.51136 65.398163 300.875 65.78125 C 299.80992 66.42244 300.21876 62.982789 300.21875 62.28125 C 300.21875 60.96084 300.19718 59.659629 300.375 58.375 C 300.49703 57.49337 299.25178 56.131269 298.84375 55.3125 C 298.33328 54.28814 297.51857 53.457629 296.8125 52.4375 C 296.20289 51.55674 295.94052 51.168759 295.28125 50.375 C 294.78832 49.7815 294.73556 49.839197 294.59375 49.15625 C 293.85828 48.270734 292.74616 48.22149 292.03125 46.5 C 291.5684 45.385455 290.73821 44.513181 290.15625 43.8125 C 289.44992 42.962052 288.86159 42.261236 288.28125 41.5625 C 287.61833 40.764338 287.17002 39.787568 286.59375 39.09375 C 285.75353 38.082124 284.69965 38.076994 284.1875 36.84375 C 283.90649 36.167066 282.45059 35.770026 281.96875 35.625 C 280.94836 35.31786 280.52225 34.879931 279.78125 34.6875 L 279.75 34.6875 C 279.51023 34.627972 279.24315 34.593749 278.90625 34.59375 C 278.13197 34.593749 276.91926 34.187499 275.84375 34.1875 C 275.04025 34.187499 273.79143 33.573098 272.96875 33.375 C 271.99936 33.14156 271.24315 32.335435 270.21875 31.71875 C 269.35446 31.198432 268.33391 30.377012 267.5 29.875 C 266.64511 29.36035 265.86073 28.69832 265.125 27.8125 C 264.3233 26.847252 263.95172 26.688477 263.40625 25.375 C 263.04859 24.513739 262.32654 23.231145 261.875 22.6875 C 261.41861 22.137995 260.79379 20.444685 260.53125 19.8125 C 260.07321 18.709512 259.50001 17.805268 259.5 16.53125 C 259.49999 15.108329 260.00001 13.837157 260 12.25 C 260 10.629151 260.65178 9.9504311 261.53125 9.15625 C 261.7149 8.990406 263.57038 8.024178 264.6875 6.375 C 265.26864 5.517087 264.48554 3.517395 265.0625 2.5 C 265.41926 1.870894 267.09123 1.263129 267.5 0.6875 C 267.86304 0.17626726 268.28368 -0.18355688 268.78125 -0.4375 C 246.16249 -33.920788 223.62081 -59.105298 202.71875 -62.53125 z M 255.0625 18.78125 C 255.14766 18.760119 255.19597 18.785069 255.21875 18.8125 C 255.80902 19.523195 256.22751 20.020152 256.9375 20.875 C 257.44774 21.489342 257.66914 22.24607 258.125 23.34375 C 258.49015 24.223057 259.13514 25.114617 259.3125 25.96875 C 259.43372 26.552534 259.97055 28.137672 260.34375 28.25 C 260.85307 28.403308 262.4527 29.564933 262.5625 30.09375 C 262.69004 30.707973 263.52502 32.120382 264.09375 32.53125 C 265.0012 33.186808 265.4111 33.347129 266.3125 33.78125 C 266.82 34.025671 268.00254 34.575074 268.6875 34.78125 C 269.31504 34.970143 271.34622 35.450933 271.78125 35.84375 C 272.68913 36.663572 273.70748 37.089112 274.96875 37.46875 C 275.67089 37.680098 276.52257 38.10295 277.21875 38.3125 C 277.75883 38.475065 278.8826 38.682667 279.25 39.125 C 279.85944 39.858779 280.69664 39.639857 281.28125 40.34375 C 281.73927 40.89521 282.3736 41.245813 283 42 C 283.42894 42.516443 284.06254 42.813692 284.71875 43.40625 C 285.40756 44.028257 285.83668 44.554408 286.40625 45.46875 C 286.74654 46.015029 287.58057 46.640491 287.9375 47.5 C 288.26805 48.295957 288.89652 49.27978 289.46875 49.96875 C 290.02688 50.640743 290.62522 51.090591 291 52.21875 C 291.31302 53.160948 292.29076 53.61792 292.71875 54.90625 C 292.88354 55.303069 293.22094 55.473749 293.375 55.9375 C 293.61068 56.646904 294.24999 57.267327 294.25 58.1875 C 294.25 59.449043 294.35562 59.894063 294.75 60.84375 C 295.22728 61.993058 295.97298 62.743716 296.46875 63.9375 C 296.80796 64.754324 296.94594 65.33929 297.46875 65.96875 C 298.16243 66.803953 298.43051 67.442403 298.84375 68.4375 C 299.12808 69.122164 299.8985 70.107119 300.03125 70.90625 C 300.18932 71.857858 300.48015 72.642549 301.0625 73.34375 C 301.39505 73.744136 302.46459 74.784192 302.59375 75.40625 C 302.78051 76.30566 303.03994 77.802566 303.4375 78.28125 C 303.93572 78.881111 304.30423 79.543638 304.96875 80.34375 C 305.49951 80.98279 305.70252 81.602946 306.34375 82.375 C 307.1566 83.353675 307.10943 84.953261 307.875 85.875 C 307.99417 86.448974 308.25356 87.783656 308.71875 88.34375 C 309.37624 89.135375 309.26736 89.824504 309.90625 90.59375 C 310.62527 91.45946 310.67275 92.14176 311.4375 93.0625 C 311.87156 93.585118 312.64778 94.245589 313 95.09375 C 313.27984 95.767594 313.70828 96.641335 314 97.34375 C 314.32643 98.129803 314.48247 98.867283 314.875 99.8125 C 315.15961 100.49788 315.15104 101.36575 315.53125 102.28125 C 315.76968 102.8554 315.92038 103.81282 316.21875 104.53125 C 316.49413 105.19438 316.93201 105.6093 317.25 106.375 C 317.65258 107.34443 318.09374 107.64365 318.09375 108.84375 C 318.09375 109.86922 318.09374 110.91203 318.09375 111.9375 C 318.09375 113.16806 318.09374 114.39443 318.09375 115.625 C 318.09375 116.51365 317.23678 118.90442 317.40625 119.3125 C 317.46303 119.44923 317.50571 119.58203 317.5625 119.71875 C 317.87479 120.47075 318.38215 121.35602 318.59375 122.375 C 318.81295 123.43074 318.89987 124.55037 319.28125 125.46875 C 319.62827 126.30437 319.63684 127.53726 320.125 128.125 C 320.60169 128.69893 320.74109 129.68698 321.3125 130.375 C 321.76878 130.92436 322.12842 131.32393 322.5 132.21875 C 322.85171 133.06567 323.21441 133.67336 323.875 134.46875 C 324.32999 135.01655 324.58506 135.9308 325.25 136.53125 C 325.91629 137.13292 326.21153 137.56685 326.625 138.5625 C 326.97296 139.40038 327.4596 140.19948 327.96875 140.8125 C 328.51992 141.47612 329.11078 141.99313 329.6875 142.6875 C 330.30885 143.43562 330.73485 144.46963 331.5625 144.71875 C 332.2012 144.91101 332.92361 145.76703 333.59375 145.96875 C 334.54295 146.25446 334.79389 146.9059 335.625 147.40625 C 336.24408 147.77894 336.69446 148.062 337.34375 148.84375 C 337.95555 149.58037 338.47093 150.01288 339.03125 150.6875 C 339.56542 151.33064 340.24708 152.15476 340.90625 152.75 C 341.57127 153.35054 341.92955 154.30613 342.78125 154.5625 C 344.03826 154.94087 343.53857 156.8698 342.09375 156 C 341.39408 155.5788 341.33535 155.26726 340.75 154.5625 C 340.22877 153.93494 339.90915 153.39311 339.375 152.75 C 338.76095 152.01067 338.82845 151.39014 337.84375 151.09375 C 336.09722 150.56804 337.19487 151.82196 336.5 152.9375 C 336.09774 153.58326 335.57976 155.42785 334.78125 155.1875 C 334.05272 154.96821 333.59376 154.72068 333.59375 153.5625 C 333.59375 152.57192 333.71441 151.4862 333.0625 151.09375 C 332.63304 150.83521 331.6778 150.20833 331.375 149.84375 C 331.07668 149.48456 330.51278 148.52743 330 148.21875 C 329.48364 147.90789 328.79418 147.76745 328.3125 147.1875 C 327.86731 146.65148 327.48678 146.39348 326.78125 145.96875 C 326.06003 145.53456 325.60943 145.37724 325.0625 144.71875 C 324.39404 143.91391 323.92483 142.76275 323.1875 141.875 C 322.83351 141.44879 321.08121 140.23749 321.6875 142.0625 C 321.89404 142.6842 322.4341 144.00036 322.875 144.53125 C 323.3391 145.09002 323.6509 145.47255 324.21875 146.15625 C 324.66131 146.68911 325.07414 147.44325 325.5625 148.03125 C 326.06607 148.63756 326.54819 148.96115 327.28125 149.84375 C 328.03015 150.74542 328.46877 150.33119 328.46875 151.90625 C 328.46875 153.16005 328.71442 153.49583 329.5 153.96875 C 330.19314 154.38603 330.75722 154.84993 331.375 155.59375 C 332.03741 156.39129 332.5433 156.65825 333.40625 157.4375 C 334.09452 158.05902 334.09374 158.76716 334.09375 160.125 C 334.09375 160.58885 334.35688 163.05818 334.09375 163.375 C 333.41582 164.19125 333.09413 163.90427 332.0625 163.59375 C 331.45368 163.41049 330.49072 162.96582 330 162.375 C 329.53069 161.80994 329.27541 161.08923 328.65625 160.34375 C 328.19268 159.7856 327.8034 159.28552 327.125 158.46875 C 326.68633 157.94058 326.08295 157.87662 325.5625 157.25 C 325.13619 156.73672 324.4134 156.25124 324.0625 155.40625 C 323.88646 154.98234 323.72203 153.1358 323.03125 153.34375 C 322.32582 153.5561 322.03965 155.00001 321.3125 155 C 320.54231 155 319.4928 155.2236 318.75 155 C 318.55166 154.94031 316.56945 155.01536 316.375 154.78125 C 315.95949 154.28096 315.61516 153.78932 314.875 153.34375 C 314.0775 152.86366 313.83923 152.35296 313.3125 151.71875 C 312.81654 151.1216 312.8151 150.49026 312.46875 149.65625 C 312.174 148.94649 311.55453 148.06432 311.28125 147.40625 C 311.03451 146.81208 310.38984 145.70081 310.59375 144.71875 C 310.86303 143.42191 311.28124 143.5809 311.28125 142.0625 C 311.28125 141.03704 311.28124 140.02546 311.28125 139 C 311.28125 137.74192 311.16814 137.15859 310.25 136.9375 C 309.87201 136.84648 307.99927 136.3742 307.375 136.75 C 306.14138 137.49265 305.96262 137.73763 305.3125 138.78125 C 305.14216 139.05471 304.98285 139.32029 304.8125 139.59375 C 304.32136 139.23894 303.76882 138.77389 303.4375 138.375 C 302.54256 137.29749 302.18844 135.71875 300.53125 135.71875 C 299.36992 135.71875 298.70164 136.78176 299.6875 137.96875 C 300.15397 138.53039 300.44884 139.29236 301.0625 140.03125 C 301.50118 140.55942 301.72956 141.02964 302.25 141.65625 C 302.74433 142.25144 303.0995 143.08541 303.78125 143.90625 C 304.23549 144.45317 305.04576 144.60933 305.5 145.15625 C 306.1646 145.95645 307.43941 148.89772 306.6875 148.21875 C 306.02832 147.6235 304.48471 147.1875 303.625 147.1875 C 302.55392 147.1875 300.97512 146.75909 301.75 148.625 C 302.25224 149.8344 302.14877 150.64723 302.59375 151.71875 C 302.9313 152.53157 303.50856 153.27347 304.46875 153.5625 C 305.21923 153.7884 305.98847 154.25802 307 154.5625 C 307.60566 154.74481 308.24365 155.02173 308.71875 155.59375 C 309.15527 156.11933 309.60171 156.84748 310.4375 157.25 C 311.1112 157.57447 312.03421 157.65624 313.15625 157.65625 C 314.23509 157.65625 315.29617 157.65624 316.375 157.65625 C 317.22944 157.65625 318.49294 157.49172 319.125 158.0625 C 319.48133 158.38426 320.32556 159.54094 320.8125 159.6875 C 321.28291 159.8291 323.10601 160.9148 323.375 161.5625 C 323.73248 162.42329 324.84173 163.35156 325.40625 164.03125 C 326.04189 164.79657 326.64661 165.06723 327.625 165.65625 C 327.74033 165.72567 330.07728 166.57921 329.3125 167.5 C 328.49306 168.48663 327.67809 167.75159 326.4375 168.125 C 325.35886 168.44967 325.75002 170.0793 325.75 171.40625 C 325.75 172.92262 325.53768 173.62668 326.625 174.28125 C 327.40292 174.74956 327.53949 175.05246 328.46875 175.5 C 329.35072 175.92477 330.01536 176.60046 331.03125 176.90625 C 332.37424 177.31049 333.05041 177.83911 334.09375 178.78125 C 334.60174 179.23997 335.32101 179.84511 335.96875 180.625 C 336.39876 181.14274 337.39458 181.30294 337.84375 181.84375 C 338.2738 182.36153 338.65444 182.82054 339.21875 183.5 C 339.27878 183.57227 340.59352 184.86278 340.5625 184.9375 C 340.43544 185.24348 340.51209 185.53948 340.6875 185.8125 C 340.53339 185.77181 340.38001 185.75001 340.21875 185.75 C 339.40061 185.75 339.02516 184.71876 338.34375 184.71875 C 338.14496 184.71875 335.07947 184.48342 334.9375 184.3125 C 334.21534 183.44302 333.89593 182.06455 332.90625 181.46875 C 331.78483 180.79365 331.26765 179.77492 330.34375 179.21875 C 328.95581 178.3832 328.39447 177.1896 326.9375 176.3125 C 325.91085 175.69445 324.99949 174.73941 323.875 174.0625 C 323.14313 173.62189 321.17446 174.09905 320.625 173.4375 C 320.45467 173.23241 320.29533 173.04883 320.125 172.84375 C 319.31821 171.87236 317.70507 170.52367 317.0625 169.75 C 316.19584 168.70654 315.63352 168.52358 314.5 167.5 C 313.47479 166.57423 312.39836 166.14126 311.28125 165.46875 C 310.55193 165.0297 307.87499 163.21282 307.875 162.15625 C 307.875 162.01952 307.91716 161.90819 307.875 161.78125 C 307.14261 159.57675 305.88823 160.35453 304.46875 159.5 C 303.6411 159.00174 302.84192 157.96966 302.0625 157.03125 C 301.24383 156.04556 300.8046 155.79 299.6875 154.78125 C 298.56414 153.76684 298.28637 152.97316 297.3125 152.09375 C 296.51458 151.37321 296.21286 150.58917 295.59375 149.84375 C 295.07615 149.22055 292.28725 148.29289 292.1875 147.8125 C 291.9498 146.66775 291.43019 144.8956 290.84375 143.71875 C 289.67963 143.01793 289.53785 142.79831 288.96875 141.65625 C 288.34555 140.40569 287.91764 139.34918 286.90625 138.375 C 286.56321 137.96198 286.1185 138.16629 285.71875 137.78125 C 284.98048 137.07014 283.99418 135.8539 283.34375 134.875 C 282.43062 133.50073 282.46874 132.83331 282.46875 131 C 282.46875 129.41276 280.59376 129.85327 280.59375 128.125 C 280.59375 126.34233 279.09376 126.25419 279.09375 125.84375 C 279.09375 124.26701 279.49235 122.80539 278.0625 122.375 C 275.99698 121.75328 277.03127 120.02202 277.03125 118.28125 C 277.03125 116.91481 276.34373 116.50039 276.34375 115 C 276.34375 112.85697 275.96887 113.07342 274.84375 111.71875 C 273.91942 110.60585 274.43194 108.97218 273.46875 107.8125 C 273.02389 107.27687 272.09373 106.33299 272.09375 105.375 C 272.09375 103.56694 271.033 103.00843 270.71875 102.0625 C 270.54871 101.55067 270.03124 99.33368 270.03125 98.375 C 270.03125 97.189979 268.6875 96.310121 268.6875 95.09375 C 268.6875 93.498652 267.49999 92.490997 267.5 91 C 267.5 89.632702 267.49999 88.273537 267.5 86.90625 C 267.5 85.675689 267.49999 84.449312 267.5 83.21875 C 267.5 82.193287 269.79303 81.208602 269.03125 80.75 C 268.83192 80.75 268.29622 80.815453 268.1875 80.75 C 267.51635 80.345962 266.81249 78.565988 266.8125 77.46875 C 266.8125 76.169821 266.81249 74.861427 266.8125 73.5625 C 266.8125 72.26357 266.81249 70.955182 266.8125 69.65625 C 266.8125 68.288961 266.81249 66.92979 266.8125 65.5625 C 266.8125 64.19521 266.81249 62.836049 266.8125 61.46875 C 266.8125 60.101461 266.81249 58.711039 266.8125 57.34375 C 266.8125 56.113189 266.81249 54.886819 266.8125 53.65625 C 266.8125 52.35732 266.81249 51.048931 266.8125 49.75 C 266.8125 48.572767 265.78125 46.452683 265.78125 47.9375 C 265.78125 48.33933 266.3922 51.218751 265.96875 51.21875 C 264.01237 51.21875 264.61757 49.901927 263.59375 49.59375 C 262.55664 49.281581 262.76463 48.750001 261.1875 48.75 C 260.11552 48.75 260.13455 49.642269 259.5 50.40625 C 258.89775 51.131366 257.43749 53.244214 257.4375 52.21875 C 256.63031 51.635637 256.43749 51.855827 256.4375 50.40625 C 256.4375 49.16526 257.09375 48.905856 257.09375 47.125 C 257.09375 45.826071 257.09375 44.517676 257.09375 43.21875 C 257.09375 41.62874 256.87744 40.67876 256.59375 39.3125 C 256.55535 39.127607 255.82389 36.34596 255.5625 36.03125 C 254.73665 35.036923 255.31262 34.406249 253.53125 34.40625 C 252.31316 34.40625 251.59986 34.440791 250.46875 34.78125 C 250.15522 34.875625 247.75 35.342929 247.75 35.625 C 247.75 36.192919 247.86909 39.9375 247.75 39.9375 C 247.57966 39.9375 247.38911 39.9375 247.21875 39.9375 C 245.9793 39.9375 246.26087 41.272431 246.71875 42.375 C 247.06703 43.213685 247.49811 43.849394 247.75 45.0625 C 247.86712 45.626529 247.98007 47.424368 248.40625 47.9375 C 248.54596 48.105712 249.93751 50.085274 249.9375 48.34375 C 249.9375 47.743209 249.68752 45.062502 250.28125 45.0625 C 251.313 45.0625 251.40818 47.149003 251.65625 48.34375 C 251.92127 49.620096 252.05099 50.54374 252.5 51.625 C 252.75015 52.227358 253.21499 52.899845 253.6875 53.46875 C 254.16383 54.042266 254.67404 54.344689 254.875 55.3125 C 255.00098 55.919275 255.37178 57.022001 255.90625 57.34375 C 256.18614 57.512243 257.98998 58.131026 258.125 58.78125 C 258.38246 60.021255 258.31251 61.376085 258.3125 62.6875 C 258.3125 63.910374 258.96875 63.774212 258.96875 65.5625 C 258.96875 67.047579 258.31251 66.790422 258.3125 68.25 C 258.3125 69.617289 258.99388 73.406332 258.3125 72.3125 C 258.24313 72.187211 258.07629 71.891371 257.96875 71.71875 C 257.84899 71.526485 257.30831 69.597923 257.09375 69.46875 C 256.72414 69.24625 256.0256 68.387271 255.90625 67.8125 C 255.76277 67.121518 255.59312 66.01325 255.21875 65.5625 C 255.06371 65.37584 254.16044 63.757642 254.03125 63.71875 C 253.43541 63.539403 252.64897 61.782603 252.5 62.5 C 252.3585 63.181488 252.19668 64.425809 252.5 65.15625 C 252.79084 65.856592 253.03032 66.357502 253.375 67.1875 C 253.69362 67.954767 253.98905 68.351888 254.375 69.28125 C 254.63908 69.917173 255.09888 70.353585 255.40625 71.09375 C 255.597 71.553086 256.07816 72.723607 256.4375 73.15625 C 256.89265 73.704262 257.37132 74.280688 257.96875 75 C 258.40339 75.523305 258.90795 76.194317 259.3125 76.84375 C 259.70987 77.48166 260.05289 78.205881 260.34375 78.90625 C 260.59734 79.516906 261.1875 80.113431 261.1875 81.15625 C 261.1875 82.083568 261.0018 83.355652 261.1875 84.25 C 261.33356 84.953459 261.56625 85.721362 262.03125 86.28125 C 262.42945 86.760689 262.83621 87.626803 263.25 88.125 C 263.74864 88.725363 264.24679 89.133293 264.59375 89.96875 C 264.8965 90.697782 265.26351 91.230298 265.46875 92.21875 C 265.67603 93.217027 265.93 93.785333 266.15625 94.875 C 266.33059 95.714653 266.29417 96.500934 266.8125 97.125 C 267.38644 97.816017 267.41504 98.530523 267.84375 99.21875 C 268.18797 99.771356 268.54952 100.54153 268.84375 101.25 C 269.13211 101.94438 269.52188 102.7706 269.71875 103.71875 C 269.89995 104.59141 269.87827 105.36758 270.21875 106.1875 C 270.45818 106.76405 270.90625 108.02563 270.90625 108.84375 C 270.90625 109.66563 271.19097 110.82755 271.59375 111.3125 C 272.07719 111.89459 272.25854 112.34907 272.59375 113.15625 C 272.83627 113.74025 273.29263 114.37049 273.46875 115.21875 C 273.67779 116.22549 273.55933 117.34854 273.96875 117.875 C 273.75343 117.3565 271.87371 116.56345 271.25 115.8125 C 270.74072 115.19931 269.94086 114.43195 269.21875 113.5625 C 268.64486 112.87153 268.27183 112.05365 267.65625 111.3125 C 267.22815 110.79707 266.52688 109.51747 266.15625 108.625 C 265.8336 107.84806 265.42317 107.14788 264.78125 106.375 C 264.21973 105.69892 263.77566 105.18763 263.25 104.34375 C 262.93266 103.83431 261.49373 102.63433 261.375 102.0625 C 261.21204 101.27769 260.84002 100.85002 260.5 100.03125 C 260.23221 99.386406 259.29003 98.42562 259.15625 97.78125 C 259.0008 97.032591 258.51139 96.489041 258.3125 95.53125 C 258.07163 94.371173 257.77962 92.825162 257.28125 91.625 C 257.0543 91.078509 256.25001 90.088295 256.25 89.375 C 256.25 88.1481 255.80055 87.794257 255.21875 87.09375 C 254.30097 85.988733 254.71153 86.058255 254.375 84.4375 C 254.2029 83.60865 253.7498 82.833834 253.53125 81.78125 C 253.38778 81.090276 253.21812 79.981997 252.84375 79.53125 C 252.0543 78.580746 252.2927 76.985043 251.65625 76.21875 C 250.98144 75.406258 250.5932 73.439913 250.28125 71.9375 C 250.07369 70.937907 249.65123 70.54623 249.09375 69.875 C 248.81239 69.53624 248.61328 69.390602 248.46875 69.3125 C 248.57762 69.321129 248.72941 69.331361 248.9375 69.28125 C 249.92805 69.042724 250.05722 67.704088 249.78125 66.375 C 249.60577 65.529903 249.44606 64.256753 249.25 63.3125 C 249.06643 62.428411 248.98621 61.387674 248.75 60.25 C 248.56374 59.352935 248.04931 58.908278 247.75 58.1875 C 247.45083 57.467081 247.29498 56.424192 246.875 55.75 C 246.47607 55.109584 245.87499 53.520602 245.875 52.84375 C 245.875 51.652045 245.6875 50.771195 245.6875 49.59375 C 245.6875 48.358391 245.35916 47.752154 245.1875 46.71875 C 245.04654 45.870154 244.99322 44.548718 244.6875 43.8125 C 244.30445 42.890095 243.36595 42.316674 243.125 41.15625 C 242.88458 39.998364 242.8125 38.439846 242.8125 37.25 C 242.8125 35.669094 243.05305 34.405723 243.3125 33.15625 C 243.54708 32.02645 243.77278 31.3756 244 30.28125 C 244.24015 29.124672 244.75623 28.882251 245.1875 27.84375 C 245.51991 27.043301 245.76602 26.614742 246.5625 26.375 C 247.49623 26.093941 248.02144 25.262506 248.59375 24.34375 C 249.09611 23.537279 249.68536 22.346624 250.46875 21.875 C 251.21502 21.425745 251.45959 20.675814 252.34375 20.25 C 252.56726 20.142359 254.46639 18.929155 255.0625 18.78125 z M 299 86.28125 C 298.55406 86.27398 298.20888 86.370751 298.15625 86.6875 C 298.09946 87.029327 298.00001 87.370158 298 87.71875 C 297.95593 87.931008 297.81252 88.430521 297.8125 88.9375 C 297.8125 90.03134 297.81252 91.124916 297.8125 92.21875 C 297.8125 93.179326 297.5204 94.875003 296.78125 94.875 C 295.71438 94.875 295.53211 94.281254 294.59375 94.28125 C 293.10603 94.28125 293.74503 92.48063 292.875 92.21875 C 292.33285 92.055565 291.16799 91.82607 290.5 91.625 C 289.41337 91.297926 289.39189 91.110207 288.78125 90.375 C 288.51494 90.054355 287.61292 88.937503 286.90625 88.9375 C 285.99776 88.9375 285.09598 88.937503 284.1875 88.9375 C 283.21781 88.9375 282.45069 88.343753 281.78125 88.34375 C 281.40294 88.34375 279.40625 88.288785 279.40625 88.53125 C 279.40625 89.813618 279.67419 90.1875 280.96875 90.1875 C 281.97388 90.1875 283.15124 89.96875 284.03125 89.96875 C 284.94415 89.96875 285.44494 90.528145 285.71875 91.1875 C 285.86806 91.547035 287.47167 93.389369 287.25 93.65625 C 286.50021 94.559007 286.65499 94.875003 285.21875 94.875 C 283.85824 94.875 283.84376 95.550781 283.84375 96.96875 C 283.84375 98.054878 283.49998 99.092928 283.5 100.03125 C 283.5 101.03522 283.3012 102.45753 283.65625 103.3125 C 283.98733 104.10976 285.59321 105.34632 284.875 105.5625 C 284.35545 105.71889 283.10421 105.9705 282.65625 106.375 C 282.33285 106.66704 281.21919 108.84376 282.46875 108.84375 C 283.37724 108.84375 284.31027 108.84376 285.21875 108.84375 C 286.31978 108.84375 287.09318 108.43749 288.28125 108.4375 C 289.03697 108.4375 290.29748 108.59231 290.84375 109.25 C 291.27085 109.76423 291.8878 110.1009 292.375 110.6875 C 292.96034 111.39225 293.47772 112.32031 294.59375 111.3125 C 295.18888 110.7751 296.99556 110.25662 297.3125 109.875 C 297.81517 109.26979 298.28681 109.25001 299.34375 109.25 C 299.84926 109.25 301.06253 110.46685 301.0625 110.875 C 301.0625 111.45468 301.34887 113.72783 301.0625 114.1875 C 300.3007 115.41047 300.16079 115.40625 298.65625 115.40625 C 297.64625 115.40625 297.0561 115.21875 295.9375 115.21875 C 294.99448 115.21875 293.78226 114.5625 292.875 114.5625 C 291.67116 114.5625 290.22386 114.64282 289.8125 115.21875 C 289.13538 115.70791 288.76744 115.8743 288.96875 116.84375 C 289.03547 117.16507 289.50749 119.85761 289.96875 119.71875 C 290.52235 119.55212 291.54911 119.2397 291.6875 119.90625 C 291.8573 120.72402 292.05403 122.41456 292.375 123.1875 C 292.76867 124.13545 293.34848 125.03125 294.40625 125.03125 C 295.42829 125.03125 296.44669 125.03125 297.46875 125.03125 C 298.39682 125.03125 299.47838 124.8196 299.6875 123.8125 C 299.71387 123.68551 299.91141 120.53125 300.1875 120.53125 C 301.09599 120.53125 302.02902 120.53125 302.9375 120.53125 C 303.67748 120.53125 305.31252 120.78506 305.3125 119.5 C 305.3125 118.04881 304.31227 116.88143 304.46875 116.84375 C 304.97418 116.72204 306.37649 115.9379 306.6875 116.21875 C 307.2344 116.71261 307.60971 118.00803 308.375 118.46875 C 309.32488 119.04059 309.43735 119.71876 310.75 119.71875 C 311.28783 119.71875 313.31249 119.81424 313.3125 118.90625 C 313.3125 117.86393 313.07958 116.76608 312.625 116.21875 C 312.10411 115.5916 311.14354 115.38995 310.59375 114.5625 C 310.36663 114.22068 310.16334 113.87204 309.90625 113.5625 C 309.35383 112.89739 308.68683 112.91434 308.03125 112.125 C 307.42694 111.39741 306.28563 111.66342 305.8125 111.09375 C 305.55036 110.77811 304.73025 109.4612 305.65625 108.625 C 306.23029 108.10664 306.852 107.81518 307.53125 107.40625 C 308.38506 106.89225 309.0822 106.46485 309.90625 105.96875 C 310.43137 105.65263 311.12869 104.14469 310.4375 103.3125 C 309.78155 102.52272 309.63548 101.95947 309.25 101.03125 C 308.91102 100.21498 308.42685 99.546357 308.03125 98.59375 C 307.70238 97.801827 307.41097 97.201277 307.1875 96.125 C 306.98299 95.140116 306.70144 94.626436 306.5 93.65625 C 306.36676 93.014527 306.359 91.976499 306.15625 91 C 306.07613 90.614145 306.1532 88.753956 305.8125 88.34375 C 305.27112 87.69192 304.59893 87.909791 303.9375 87.3125 C 302.89669 86.372646 301.91687 87.314707 300.875 86.6875 C 300.72752 86.598722 299.74323 86.293358 299 86.28125 z M 345.09375 157.40625 C 345.10868 157.38284 345.14493 157.38625 345.1875 157.4375 C 345.79078 158.16384 346.47612 158.3871 347.21875 159.28125 C 347.46939 159.8848 346.81004 159.03853 347.375 159.71875 C 348.39075 160.94172 349.02777 161.87403 349.78125 162.78125 C 350.29813 163.40359 350.68626 164.08975 351.3125 164.84375 C 351.72478 165.34015 352.34387 166.12276 352.65625 166.875 C 353.04673 167.81531 353.76341 168.32252 354.1875 169.34375 C 354.63232 170.41489 355.36269 170.95509 355.71875 171.8125 C 355.99982 172.48931 356.50109 174.34955 356.9375 174.875 C 357.52875 175.58687 357.60764 176.12649 358.28125 176.9375 C 358.99653 177.79871 359.16559 178.4086 359.8125 179.1875 C 360.08593 179.5167 361.87501 181.32198 361.875 181.4375 C 361.875 182.46297 361.87501 183.50578 361.875 184.53125 C 361.875 185.68735 361.53124 187.03381 361.53125 188 C 361.53125 189.04274 361.35044 190.86842 361.875 191.5 C 362.21499 191.90935 362.86597 193.83098 363.40625 194.15625 C 364.01627 194.52348 364.64391 195.01823 365.28125 195.59375 C 366.23692 196.45673 366.87542 196.81008 367.8125 197.65625 C 368.56187 198.33294 369.1859 198.6703 369.875 199.5 C 370.37656 200.10387 371.31622 200.25455 371.75 201.125 C 372.14141 201.91045 372.76397 203.07538 373.625 203.59375 C 374.45118 204.09111 374.36692 204.89734 374.125 206.0625 C 373.77727 207.73717 372.77824 207.28125 371.40625 207.28125 C 370.20253 207.28125 369.43297 207.20286 368.34375 206.875 C 367.19151 206.52817 365.54028 205.71396 364.40625 205.03125 C 363.48253 204.47517 362.49104 204.31937 361.6875 203.59375 C 361.0568 203.02422 360.48132 202.64389 359.46875 202.15625 C 358.46952 201.67501 357.98715 201.338 357.09375 200.53125 C 356.26177 199.77996 355.62466 199.31129 354.71875 198.875 C 353.82824 198.44613 352.65967 198.04427 352 197.25 C 351.30126 196.40871 350.10601 195.39326 349 194.71875 C 348.49106 194.57324 347.53094 194.11916 347.03125 193.96875 C 347.5204 193.96875 348.25358 194.26354 349 194.71875 C 349.093 194.74534 349.19425 194.78125 349.25 194.78125 C 350.23716 194.78125 351.26616 194.83043 352.15625 194.5625 C 352.41675 194.48409 354.53124 193.90208 354.53125 193.34375 C 354.53125 192.35272 354.3267 191.17086 353.34375 190.875 C 352.54896 190.63577 351.89695 190.59672 351.65625 189.4375 C 351.4634 188.50873 350.96555 187.85633 350.78125 186.96875 C 350.56325 185.91885 349.93751 185.32007 349.9375 184.125 C 349.9375 183.07183 349.98403 182.00777 349.78125 181.03125 C 349.57472 180.03661 349.25001 178.86085 349.25 177.96875 C 349.25 177.01854 348.75 176.27636 348.75 175.5 C 348.75 173.77865 348.3153 174.23499 347.90625 173.25 C 347.55543 172.40521 347.56249 171.5757 347.5625 170.375 C 347.5625 169.63328 347.83092 167.92763 347.5625 167.28125 C 347.19606 166.39885 346.71875 166.36497 346.71875 165.03125 C 346.71875 164.18056 346.93446 162.61603 346.53125 161.96875 C 346.1195 161.30774 345.72791 160.59764 345.5 159.5 C 345.4668 159.34015 344.98927 157.57014 345.09375 157.40625 z M 340.71875 185.8125 C 341.39051 185.99793 341.99533 186.54337 342.40625 187.15625 C 341.87285 186.83623 341.08381 186.36875 340.71875 185.8125 z M 365.96875 186.9375 C 366.2297 187.00416 367.70157 188.27269 367.8125 188.40625 C 368.54218 189.2848 368.48797 189.5285 369.375 190.0625 C 370.11001 190.50498 370.43401 191.00876 371.25 191.5 C 371.86941 191.87289 372.83442 193.25485 373.625 193.96875 C 374.28356 194.56343 374.94481 194.75921 375.65625 195.1875 C 376.71826 195.82684 377.82553 195.86852 378.71875 196.40625 C 379.71226 197.00434 380.76499 197.39738 381.625 197.65625 C 382.4106 197.89272 383.5344 197.65625 384.34375 197.65625 C 385.42257 197.65625 386.51492 197.65625 387.59375 197.65625 C 387.87766 197.65625 388.1536 197.65625 388.4375 197.65625 L 385.5625 224.59375 C 385.61979 224.6798 385.62206 224.79172 385.53125 224.9375 L 385.5625 224.59375 C 385.2924 224.18808 383.66077 224.29495 383.15625 223.6875 C 382.46408 222.85414 381.73751 221.98746 381.125 221.25 C 380.42714 220.40975 380.05732 219.86101 379.25 219.375 C 378.48748 218.91594 378.0201 217.93233 377.53125 217.34375 C 376.97386 216.67265 376.38625 215.93946 375.65625 215.5 C 375.13977 215.18907 374.41379 214.19146 374.125 213.84375 C 373.37243 212.93766 375.08406 212.31329 375.5 211.8125 C 376.33339 210.80907 377.3408 209.98259 377.875 209.125 C 378.43294 208.22932 378.375 206.5811 378.375 205.4375 C 378.375 204.34366 378.375 203.25008 378.375 202.15625 C 378.375 200.95149 377.5823 200.97596 377.03125 200.3125 C 376.47474 199.64244 375.99278 199.25985 375.5 198.46875 C 375.22814 198.03233 374.31325 197.66479 373.96875 197.25 C 373.42685 196.59754 372.7629 196.2113 372.25 195.59375 C 371.6306 194.84798 370.9251 194.18136 370.21875 193.96875 C 369.346 193.70604 368.97336 193.31652 368.34375 192.9375 C 368.06346 192.76878 367.36989 191.38946 367.15625 190.875 C 366.82061 190.06679 366.1217 189.44481 365.78125 188.625 C 365.62874 188.25772 365.89322 187.33248 365.96875 186.96875 C 365.96384 186.95693 365.96975 186.94545 365.96875 186.9375 z M 342.4375 187.1875 C 342.81493 187.41471 344.71764 187.94508 345 188.625 C 345.85548 190.68503 343.20746 189.556 342.96875 188.40625 C 342.88894 188.02186 342.70372 187.59146 342.4375 187.1875 z M 368.3125 232.15625 C 370.83128 231.90796 376.93777 238.46016 377.375 239.90625 C 377.58694 240.60725 379.37694 240.63289 379.75 241.53125 C 380.03209 242.21052 380.23744 243.75149 380.78125 244.40625 C 380.83803 244.47462 380.90767 244.53523 380.9375 244.625 C 381.19973 245.41433 381.41114 245.98375 381.78125 246.875 C 382.06707 247.56327 382.61583 248.4187 383 249.34375 C 383.29482 250.05368 383.34375 251.13334 383.34375 252.40625 C 383.34375 253.78266 382.8125 255.1114 382.8125 256.5 C 382.8125 257.57239 382.6658 258.64482 382.46875 259.59375 C 382.26532 260.57349 381.96876 261.58867 381.96875 262.875 C 381.96875 264.07968 381.84665 264.86994 381.625 265.9375 C 381.39144 267.06234 381.37073 268.25409 381.125 269.4375 C 380.95633 270.24985 381.03639 271.78942 380.59375 272.5 C 380.05272 273.36853 379.54729 274.82193 378.90625 275.59375 C 378.29332 276.33174 378.06249 277.1651 378.0625 278.46875 C 378.0625 279.59103 377.875 280.68395 377.875 281.75 C 377.875 282.67732 378.0607 283.91816 377.875 284.8125 C 377.65077 285.89243 377.60046 287.22665 377.375 288.3125 C 377.20203 289.14551 376.7129 290.34963 376.5 291.375 C 376.28781 292.39691 376.1772 293.44705 375.84375 294.25 C 375.49249 295.09585 374.96876 295.6056 374.96875 296.71875 C 374.96875 298.18978 374.93667 299.3412 374.3125 300 C 373.66803 300.06178 372.87578 298.87145 372.4375 298.34375 C 372.08792 297.92285 372.25001 296.25459 372.25 295.46875 C 372.25 294.44328 372.25001 293.43172 372.25 292.40625 C 372.25 291.34303 371.40626 291.48142 371.40625 290.34375 C 371.40625 289.47535 370.71876 288.43417 370.71875 287.28125 C 370.71875 286.17018 370.71792 285.3133 370.90625 284.40625 C 371.14511 283.25588 370.79912 281.8823 370.5625 281.3125 C 370.23565 280.52544 370.21876 279.71058 370.21875 278.46875 C 370.21875 277.206 369.81583 277.00872 369.1875 276 C 368.78613 275.35566 368.84157 274.25726 369.03125 273.34375 C 369.21695 272.44941 369.03125 271.17732 369.03125 270.25 C 369.03125 269.08781 369.03125 267.9122 369.03125 266.75 C 369.03125 265.72453 369.03125 264.71298 369.03125 263.6875 C 369.03125 262.59367 369.03125 261.50009 369.03125 260.40625 C 369.03125 259.31242 369.03125 258.21883 369.03125 257.125 C 369.03125 255.46148 368.77414 255.09891 368.34375 254.0625 C 367.99786 253.22959 367.92549 252.48631 368.15625 251.375 C 368.35297 250.42754 368.15625 249.07231 368.15625 248.09375 C 368.15625 246.99992 368.15625 245.90633 368.15625 244.8125 C 368.15625 243.6503 368.15625 242.50595 368.15625 241.34375 C 368.15625 240.31828 368.15625 239.27547 368.15625 238.25 C 368.15625 237.15617 368.15625 236.06258 368.15625 234.96875 C 368.15625 233.6743 367.98359 233.88324 367.5 232.71875 C 367.68717 232.37171 367.95267 232.19172 368.3125 232.15625 z M 383.28125 270.75 C 383.6254 270.76345 383.84375 271.20035 383.84375 272.09375 C 383.84374 273.46105 383.84375 274.82021 383.84375 276.1875 C 383.84374 277.21299 383.84375 278.25578 383.84375 279.28125 C 383.84374 280.24808 382.69281 280.62886 382.125 281.3125 C 381.79992 281.70391 381.38874 282.58113 381.125 283.375 C 381.12501 282.87671 381.28125 281.06381 381.28125 279.90625 C 381.28126 278.8124 381.28125 277.71883 381.28125 276.625 C 381.28126 275.53116 381.28125 274.43759 381.28125 273.34375 C 381.28126 272.46215 382.3189 271.36713 382.65625 271.0625 C 382.82753 270.90783 382.9811 270.82047 383.125 270.78125 C 383.17896 270.76654 383.23209 270.74808 383.28125 270.75 z M 367 299.34375 C 367.04881 299.33151 367.09356 299.3374 367.15625 299.34375 C 367.32342 299.36068 367.5171 299.45148 367.8125 299.59375 C 368.49083 299.92045 368.84375 300.72249 368.84375 301.84375 C 368.84375 302.61846 369.1875 303.64447 369.1875 304.71875 C 369.18749 305.61079 369.47208 306.72658 369.6875 307.375 C 370.02042 308.37713 370.46724 308.22623 370.71875 309.4375 C 370.92391 310.42551 371.0625 311.05618 371.0625 312.28125 C 371.06249 313.05996 371.5625 314.30021 371.5625 315.375 C 371.5625 316.3133 371.63195 315.90779 370.90625 317 C 370.3272 317.69718 370.02259 315.35127 369.53125 314.5625 C 369.10597 313.87979 368.9817 312.75809 368.84375 312.09375 C 368.6093 310.96457 368.01528 310.43953 367.8125 309.21875 C 367.63109 308.12672 367.65625 307.34127 367.65625 306.15625 C 367.65624 304.96323 367.3125 304.65995 367.3125 303.46875 C 367.31251 302.63813 366.625 302.15122 366.625 301.03125 C 366.625 299.98254 366.65833 299.42942 367 299.34375 z "
       id="path77015" />
    <path
       style="fill:#a68fbd;fill-opacity:1;fill-rule:evenodd;stroke:black;stroke-width:0.90017569px;stroke-linecap:butt;stroke-linejoin:miter;stroke-opacity:1"
       d="M 85.696089,78.039558 L 31.918099,77.785848 L 69.361649,137.662 L 94.240259,144.76594 C 93.789219,145.96223 93.937739,148.10615 92.665499,148.28294 C 86.672609,149.11566 88.174039,156.59584 86.198689,163.79438 C 82.134419,164.00419 81.178349,167.35205 79.664909,170.13719 C 76.161749,173.36605 71.676629,175.60352 69.361649,180.03198 C 67.396269,181.97081 64.382749,186.02602 61.822679,189.16563 C 58.709279,191.95647 54.790439,194.74731 49.006429,197.53814 L 89.968179,197.28443 L 89.968179,203.88096 L 138.46887,203.88095 L 138.72017,207.17922 L 164.10138,207.17922 L 164.10138,199.06042 L 217.12547,200.8364 L 216.62288,173.94288 L 249.79434,183.83767 L 165.10658,78.293268 L 113.59028,95.038298 L 77.905829,94.784588 L 85.696089,78.039558 z "
       id="path66078"
       sodipodi:nodetypes="ccccscccccccccccccccccc" />
    <path
       style="fill:#fbbd81;fill-opacity:1;fill-rule:evenodd;stroke:black;stroke-width:0.90017569px;stroke-linecap:butt;stroke-linejoin:miter;stroke-opacity:1"
       d="M 350.46991,261.52491 C 351.12922,257.36733 352.49324,253.26904 349.30876,248.78807 C 349.11757,243.65576 348.5528,238.84673 346.04187,235.72187 C 346.59055,224.41673 341.06454,220.32692 336.11556,215.55173 C 338.18656,202.17063 332.06543,197.06035 327.44574,190.43419 C 312.50609,188.74032 319.90677,183.11882 307.09052,177.36801 C 303.71455,174.32741 301.32043,172.77373 298.54635,170.64462 L 235.84724,167.21951 L 249.79434,183.83767 L 216.99982,174.45031 L 217.12547,201.21697 L 271.02911,214.02945 L 262.23364,257.54114 L 302.19019,267.8165 L 307.09052,250.31034 L 350.46991,261.52491 z "
       id="path64243"
       sodipodi:nodetypes="cccccccccccccccc" />
    <text
       xml:space="preserve"
       style="font-size:7.20141697px;fill:black"
       x="260.76306"
       y="119.23058"
       id="text64245"
       transform="matrix(0.962255,0.256512,-0.254071,0.971497,0,0)"><tspan
         sodipodi:role="line"
         id="tspan64247"
         x="260.76306"
         y="119.23058">Santa Fe</tspan></text>
    <text
       xml:space="preserve"
       style="font-size:7.20142031px;font-style:normal;font-weight:normal;fill:black;fill-opacity:1;stroke:none;stroke-width:1px;stroke-linecap:butt;stroke-linejoin:miter;stroke-opacity:1;font-family:Bitstream Vera Sans"
       x="262.26987"
       y="161.21225"
       id="text64249"
       transform="matrix(0.994032,4.934149e-2,-4.887213e-2,1.003578,0,0)"><tspan
         sodipodi:role="line"
         id="tspan64251"
         x="262.26987"
         y="161.21225">F.C. Mitre</tspan></text>
    <text
       xml:space="preserve"
       style="font-size:10.80207539px;font-style:normal;font-weight:normal;text-align:center;text-anchor:middle;fill:black;fill-opacity:1;stroke:none;stroke-width:1px;stroke-linecap:butt;stroke-linejoin:miter;stroke-opacity:1;font-family:Bitstream Vera Sans"
       x="288.73941"
       y="192.17665"
       id="text64253"
       transform="scale(0.995232,1.00479)"><tspan
         sodipodi:role="line"
         id="tspan64255"
         x="288.73941"
         y="192.17665">DISTRITO</tspan><tspan
         sodipodi:role="line"
         x="288.73941"
         y="205.67925"
         id="tspan64257">CENTRO</tspan></text>
    <path
       style="font-size:12px;fill:#7389c1;fill-opacity:1;fill-rule:evenodd;stroke:black;stroke-width:0.90017569px;stroke-linecap:butt;stroke-linejoin:miter;stroke-opacity:1"
       d="M 274.41635,381.27562 L 285.5223,335.61786 L 259.75649,305.65775 L 271.92861,259.99999 L 302.31451,267.80397 L 307.02343,250.2226 L 350.46991,261.34551 C 351.79458,262.66112 349.80383,263.97673 348.15988,265.29234 C 350.44146,272.04541 353.13192,284.89248 350.02568,301.17271 C 341.62219,284.18414 340.36692,302.77589 348.51526,306.37536 C 351.20091,304.99853 351.12527,311.9851 352.33572,315.07635 C 353.75784,318.70897 361.50919,324.02315 348.78181,329.06969 C 343.33363,331.25703 339.41658,339.62772 332.07846,334.18264 C 325.14582,335.88285 320.88152,346.80215 311.28811,353.19923 C 306.68054,364.07984 303.83114,364.88867 294.14052,367.73078 C 288.31857,373.15773 281.40067,377.25691 274.41635,381.27562 z "
       id="path69684"
       sodipodi:nodetypes="cccccccccccccccc" />
    <text
       xml:space="preserve"
       style="font-size:7.20140505px;font-style:normal;font-weight:normal;fill:black;fill-opacity:1;stroke:none;stroke-width:1px;stroke-linecap:butt;stroke-linejoin:miter;stroke-opacity:1;font-family:Bitstream Vera Sans"
       x="-190.21796"
       y="319.55469"
       id="text64259"
       transform="matrix(0.21185,-0.981762,0.972423,0.213885,0,0)"><tspan
         sodipodi:role="line"
         id="tspan64261"
         x="-190.21796"
         y="319.55469">Av. Francia</tspan></text>
    <text
       xml:space="preserve"
       style="font-size:7.20141792px;font-style:normal;font-weight:normal;fill:black;fill-opacity:1;stroke:none;stroke-width:1px;stroke-linecap:butt;stroke-linejoin:miter;stroke-opacity:1;font-family:Bitstream Vera Sans"
       x="352.07889"
       y="160.71729"
       id="text64263"
       transform="matrix(0.963398,0.252103,-0.249705,0.97265,0,0)"><tspan
         sodipodi:role="line"
         id="tspan64265"
         x="352.07889"
         y="160.71729">27 de Febrero</tspan></text>
    <path
       style="fill:#51bdaa;fill-opacity:1;fill-rule:evenodd;stroke:black;stroke-width:0.90017569px;stroke-linecap:butt;stroke-linejoin:miter;stroke-opacity:1"
       d="M 235.32339,166.80075 L 165.66687,77.817438 L 112.7137,95.040018 L 77.695099,94.681208 L 85.556809,77.922528 L 78.966839,77.950668 L 79.162319,57.235138 L 62.073989,57.235138 L 62.073989,32.371312 L 230.69562,32.117602 C 232.6901,41.595422 234.09066,51.857288 232.70601,72.965308 L 237.73199,90.471468 C 240.98208,97.270948 245.47396,104.69728 246.27616,110.26105 C 249.17867,117.29444 250.41381,124.22261 258.33851,131.5729 L 262.35929,138.67685 L 266.38007,145.52709 C 268.76604,148.80895 271.5344,152.73424 274.92424,157.70529 C 278.32257,162.12771 282.59727,163.89576 286.9866,165.31666 L 298.29505,170.39091 L 235.32339,166.80075 z "
       id="path65153"
       sodipodi:nodetypes="cccccccccccccccccccc" />
    <text
       xml:space="preserve"
       style="font-size:7.2013855px;font-style:normal;font-weight:normal;fill:black;fill-opacity:1;stroke:none;stroke-width:1px;stroke-linecap:butt;stroke-linejoin:miter;stroke-opacity:1;font-family:Bitstream Vera Sans"
       x="22.266659"
       y="74.341125"
       id="text65171"
       transform="scale(0.995232,1.00479)"><tspan
         sodipodi:role="line"
         id="tspan65173"
         x="22.266659"
         y="74.341125">Límite del Aeropuerto</tspan></text>
    <text
       xml:space="preserve"
       style="font-size:7.2013855px;font-style:normal;font-weight:normal;fill:black;fill-opacity:1;stroke:none;stroke-width:1px;stroke-linecap:butt;stroke-linejoin:miter;stroke-opacity:1;font-family:Bitstream Vera Sans"
       x="77.521309"
       y="103.92719"
       id="text66068"
       transform="scale(0.995232,1.00479)"><tspan
         sodipodi:role="line"
         id="tspan66070"
         x="77.521309"
         y="103.92719">Calle 1409</tspan></text>
    <text
       xml:space="preserve"
       style="font-size:10.80207539px;font-style:normal;font-weight:normal;text-align:center;text-anchor:middle;fill:black;fill-opacity:1;stroke:none;stroke-width:1px;stroke-linecap:butt;stroke-linejoin:miter;stroke-opacity:1;font-family:Bitstream Vera Sans"
       x="134.08179"
       y="129.1774"
       id="text66072"
       transform="scale(0.995232,1.00479)"><tspan
         sodipodi:role="line"
         id="tspan66074"
         x="134.08179"
         y="129.1774">DISTRITO</tspan><tspan
         sodipodi:role="line"
         x="134.08179"
         y="142.67999"
         id="tspan66076">NOROESTE</tspan></text>
    <text
       xml:space="preserve"
       style="font-size:7.2014246px;font-style:normal;font-weight:normal;text-align:center;text-anchor:middle;fill:black;fill-opacity:1;stroke:none;stroke-width:1px;stroke-linecap:butt;stroke-linejoin:miter;stroke-opacity:1;font-family:Bitstream Vera Sans"
       x="106.54221"
       y="122.94188"
       id="text66060"
       transform="matrix(0.945922,-0.312358,0.309387,0.955006,0,0)"><tspan
         sodipodi:role="line"
         id="tspan66062"
         x="107.68853"
         y="122.94188">Límite del </tspan><tspan
         sodipodi:role="line"
         x="107.68853"
         y="131.94366"
         id="tspan66064">Parque de los </tspan><tspan
         sodipodi:role="line"
         x="106.54221"
         y="140.94544"
         id="tspan66066">Constituyentes</tspan></text>
    <path
       style="fill:none;fill-rule:evenodd;stroke:black;stroke-width:0.90017569px;stroke-linecap:butt;stroke-linejoin:miter;stroke-opacity:1"
       d="M 270.43782,213.91865 L 346.27446,231.80899"
       id="path66965" />
    <path
       style="fill:none;fill-rule:evenodd;stroke:red;stroke-width:0.45008785;stroke-linecap:butt;stroke-linejoin:miter;stroke-miterlimit:4;stroke-dasharray:none;stroke-opacity:1"
       d="M 176.70618,199.76583 C 142.11097,199.57799 114.08441,199.98138 111.28558,196.68673 C 108.48675,193.39208 50.622149,198.03707 41.102509,192.27581 L 30.973869,185.99674"
       id="path66973"
       sodipodi:nodetypes="czcc" />
    <path
       style="fill:none;fill-rule:evenodd;stroke:red;stroke-width:0.45008785;stroke-linecap:butt;stroke-linejoin:miter;stroke-miterlimit:4;stroke-dasharray:none;stroke-opacity:1"
       d="M 176.7062,199.11551 C 142.11099,198.92766 114.79518,199.17408 111.99636,195.87943 C 109.19753,192.58478 50.799849,197.05036 41.280209,191.28911 L 31.329269,185.18944"
       id="path67860"
       sodipodi:nodetypes="czcc" />
    <text
       xml:space="preserve"
       style="font-size:7.2013855px;font-style:normal;font-weight:normal;text-align:center;text-anchor:middle;fill:black;fill-opacity:1;stroke:none;stroke-width:1px;stroke-linecap:butt;stroke-linejoin:miter;stroke-opacity:1;font-family:Bitstream Vera Sans"
       x="113.96751"
       y="200.64265"
       id="text66967"
       transform="scale(0.995232,1.00479)"><tspan
         sodipodi:role="line"
         id="tspan66969"
         x="113.96751"
         y="200.64265">Camino</tspan><tspan
         sodipodi:role="line"
         x="113.96751"
         y="209.64439"
         id="tspan66971">Cochabamba</tspan></text>
    <text
       xml:space="preserve"
       style="font-size:7.2013855px;font-style:normal;font-weight:normal;fill:black;fill-opacity:1;stroke:none;stroke-width:1px;stroke-linecap:butt;stroke-linejoin:miter;stroke-opacity:1;font-family:Bitstream Vera Sans"
       x="13.624671"
       y="181.80602"
       id="text67862"
       transform="scale(0.995232,1.00479)"><tspan
         sodipodi:role="line"
         id="tspan67864"
         x="13.624671"
         y="181.80602">Au. a Córdoba</tspan></text>
    <text
       xml:space="preserve"
       style="font-size:7.2013855px;font-style:normal;font-weight:normal;fill:black;fill-opacity:1;stroke:none;stroke-width:1px;stroke-linecap:butt;stroke-linejoin:miter;stroke-opacity:1;font-family:Bitstream Vera Sans"
       x="168.92708"
       y="206.44307"
       id="text67866"
       transform="scale(0.995232,1.00479)"><tspan
         sodipodi:role="line"
         id="tspan67868"
         x="168.92708"
         y="206.44307">Av. Pellegrini</tspan></text>
    <text
       xml:space="preserve"
       style="font-size:7.2013855px;font-style:normal;font-weight:normal;fill:black;fill-opacity:1;stroke:none;stroke-width:1px;stroke-linecap:butt;stroke-linejoin:miter;stroke-opacity:1;font-family:Bitstream Vera Sans"
       x="141.65686"
       y="214.01814"
       id="text67870"
       transform="scale(0.995232,1.00479)"><tspan
         sodipodi:role="line"
         id="tspan67872"
         x="141.65686"
         y="214.01814">Pasco</tspan></text>
    <text
       xml:space="preserve"
       style="font-size:7.20140028px;font-style:normal;font-weight:normal;fill:black;fill-opacity:1;stroke:none;stroke-width:1px;stroke-linecap:butt;stroke-linejoin:miter;stroke-opacity:1;font-family:Bitstream Vera Sans"
       x="-210.4689"
       y="289.42236"
       id="text68767"
       transform="matrix(0.311505,-0.954304,0.945226,0.314496,0,0)"><tspan
         sodipodi:role="line"
         id="tspan68769"
         x="-210.4689"
         y="289.42236">Avellaneda</tspan></text>
    <text
       xml:space="preserve"
       style="font-size:7.20141315px;font-style:normal;font-weight:normal;fill:black;fill-opacity:1;stroke:none;stroke-width:1px;stroke-linecap:butt;stroke-linejoin:miter;stroke-opacity:1;font-family:Bitstream Vera Sans"
       x="271.66846"
       y="189.25186"
       id="text68771"
       transform="matrix(0.971927,0.216172,-0.214116,0.981261,0,0)"><tspan
         sodipodi:role="line"
         id="tspan68773"
         x="271.66846"
         y="189.25186">Amenabar</tspan></text>
    <text
       xml:space="preserve"
       style="font-size:7.20138931px;font-style:normal;font-weight:normal;fill:black;fill-opacity:1;stroke:none;stroke-width:1px;stroke-linecap:butt;stroke-linejoin:miter;stroke-opacity:1;font-family:Bitstream Vera Sans"
       x="-391.07486"
       y="210.34756"
       id="text68775"
       transform="matrix(-5.634348e-3,-1.004774,0.995216,-5.68846e-3,0,0)"><tspan
         sodipodi:role="line"
         id="tspan68777"
         x="-391.07486"
         y="210.34756">F.C. Belgrano</tspan></text>
    <text
       xml:space="preserve"
       style="font-size:7.20138931px;font-style:normal;font-weight:normal;fill:black;fill-opacity:1;stroke:none;stroke-width:1px;stroke-linecap:butt;stroke-linejoin:miter;stroke-opacity:1;font-family:Bitstream Vera Sans"
       x="-235.85153"
       y="318.82428"
       id="text69672"
       transform="matrix(0.228315,-0.977992,0.96869,0.230508,0,0)"
       inkscape:transform-center-y="5.0490716"><tspan
         sodipodi:role="line"
         id="tspan69674"
         x="-235.85153"
         y="318.82428">Bv. Oroño</tspan></text>
    <text
       xml:space="preserve"
       style="font-size:7.20140743px;font-style:normal;font-weight:normal;fill:black;fill-opacity:1;stroke:none;stroke-width:1px;stroke-linecap:butt;stroke-linejoin:miter;stroke-opacity:1;font-family:Bitstream Vera Sans"
       x="402.93427"
       y="20.826523"
       id="text69676"
       transform="matrix(0.695502,0.718711,-0.711873,0.702182,0,0)"><tspan
         sodipodi:role="line"
         id="tspan69678"
         x="402.93427"
         y="20.826523">F.C. Mitre</tspan></text>
    <text
       xml:space="preserve"
       style="font-size:7.20140266px;font-style:normal;font-weight:normal;fill:black;fill-opacity:1;stroke:none;stroke-width:1px;stroke-linecap:butt;stroke-linejoin:miter;stroke-opacity:1;font-family:Bitstream Vera Sans"
       x="-277.65051"
       y="376.11917"
       id="text69680"
       transform="matrix(0.273962,-0.965971,0.956782,0.276593,0,0)"><tspan
         sodipodi:role="line"
         id="tspan69682"
         x="-277.65051"
         y="376.11917">San Martín</tspan></text>
    <text
       xml:space="preserve"
       style="font-size:7.201406px;font-style:normal;font-weight:normal;fill:black;fill-opacity:1;stroke:none;stroke-width:1px;stroke-linecap:butt;stroke-linejoin:miter;stroke-opacity:1;font-family:Bitstream Vera Sans"
       x="-199.40051"
       y="374.46817"
       id="text69686"
       transform="matrix(0.273962,-0.965971,0.956782,0.276593,0,0)"><tspan
         sodipodi:role="line"
         id="tspan69688"
         x="-199.40051"
         y="374.46817">San Martín</tspan></text>
    <path
       style="fill:none;fill-rule:evenodd;stroke:black;stroke-width:0.90017569px;stroke-linecap:butt;stroke-linejoin:miter;stroke-opacity:1"
       d="M 259.595,305.87337 L 256.45377,317.41729 L 256.70507,335.05031"
       id="path70581"
       sodipodi:nodetypes="ccc" />
    <path
       style="fill:none;fill-rule:evenodd;stroke:red;stroke-width:0.45008785;stroke-linecap:butt;stroke-linejoin:miter;stroke-miterlimit:4;stroke-dasharray:none;stroke-opacity:1"
       d="M 256.15762,335.22139 L 256.78587,397.1765"
       id="path70583"
       sodipodi:nodetypes="cc" />
    <path
       style="fill:none;fill-rule:evenodd;stroke:red;stroke-width:0.45008785;stroke-linecap:butt;stroke-linejoin:miter;stroke-miterlimit:4;stroke-dasharray:none;stroke-opacity:1"
       d="M 257.04348,335.19028 L 257.54608,397.4145"
       id="path72355"
       sodipodi:nodetypes="cc" />
    <text
       xml:space="preserve"
       style="font-size:7.20138264px;font-style:normal;font-weight:normal;fill:black;fill-opacity:1;stroke:none;stroke-width:1px;stroke-linecap:butt;stroke-linejoin:miter;stroke-opacity:1;font-family:Bitstream Vera Sans"
       x="225.66089"
       y="393.90848"
       id="text72357"
       transform="scale(0.995232,1.00479)"><tspan
         sodipodi:role="line"
         id="tspan72359"
         x="225.66089"
         y="393.90848">Au. a Bs. As.</tspan></text>
    <text
       xml:space="preserve"
       style="font-size:7.20140505px;font-style:normal;font-weight:normal;fill:black;fill-opacity:1;stroke:none;stroke-width:1px;stroke-linecap:butt;stroke-linejoin:miter;stroke-opacity:1;font-family:Bitstream Vera Sans"
       x="194.37991"
       y="-90.178818"
       id="text65159"
       transform="matrix(0.603222,0.79919,-0.791587,0.609015,0,0)"><tspan
         sodipodi:role="line"
         id="tspan65161"
         x="194.37991"
         y="-90.178818">F.C. Belgrano</tspan></text>
    <text
       xml:space="preserve"
       style="font-size:10.80207539px;font-style:normal;font-weight:normal;fill:black;fill-opacity:1;stroke:none;stroke-width:1px;stroke-linecap:butt;stroke-linejoin:miter;stroke-opacity:1;font-family:Bitstream Vera Sans"
       x="101.76151"
       y="56.456795"
       id="text65155"
       transform="scale(0.995232,1.00479)"><tspan
         sodipodi:role="line"
         id="tspan65157"
         x="101.76151"
         y="56.456795">DISTRITO NORTE</tspan></text>
    <text
       xml:space="preserve"
       style="font-size:10.80207539px;font-style:normal;font-weight:normal;text-align:center;text-anchor:middle;fill:black;fill-opacity:1;stroke:none;stroke-width:1px;stroke-linecap:butt;stroke-linejoin:miter;stroke-opacity:1;font-family:Bitstream Vera Sans"
       x="178.01717"
       y="251.38841"
       id="text68761"
       transform="scale(0.995232,1.00479)"><tspan
         sodipodi:role="line"
         id="tspan68763"
         x="178.01717"
         y="251.38841">DISTRITO</tspan><tspan
         sodipodi:role="line"
         x="178.01717"
         y="264.89101"
         id="tspan68765">OESTE</tspan></text>
    <text
       xml:space="preserve"
       style="font-size:10.80207539px;font-style:normal;font-weight:normal;text-align:center;text-anchor:middle;fill:black;fill-opacity:1;stroke:none;stroke-width:1px;stroke-linecap:butt;stroke-linejoin:miter;stroke-opacity:1;font-family:Bitstream Vera Sans"
       x="317.50989"
       y="311.69824"
       id="text70575"
       transform="scale(0.995232,1.00479)"><tspan
         sodipodi:role="line"
         id="tspan70577"
         x="317.50989"
         y="311.69824">DISTRITO</tspan><tspan
         sodipodi:role="line"
         x="317.50989"
         y="325.20084"
         id="tspan70579">SUR</tspan></text>
    <path
       style="fill:none;fill-rule:evenodd;stroke:red;stroke-width:0.45008785;stroke-linecap:butt;stroke-linejoin:miter;stroke-miterlimit:4;stroke-dasharray:none;stroke-opacity:1"
       d="M 261.1028,352.1759 C 258.55796,350.90257 257.28079,348.28408 257.08201,345.83309"
       id="path73250"
       sodipodi:nodetypes="cc" />
    <path
       style="fill:none;fill-rule:evenodd;stroke:red;stroke-width:0.45008785;stroke-linecap:butt;stroke-linejoin:miter;stroke-miterlimit:4;stroke-dasharray:none;stroke-opacity:1"
       d="M 256.45377,359.40672 C 255.93354,357.04973 253.62208,355.14814 252.42091,352.81651 C 251.22765,350.50022 250.70681,347.4975 249.60588,345.95996"
       id="path74137"
       sodipodi:nodetypes="csc" />
    <path
       style="fill:none;fill-rule:evenodd;stroke:red;stroke-width:0.45008785;stroke-linecap:butt;stroke-linejoin:miter;stroke-miterlimit:4;stroke-dasharray:none;stroke-opacity:1"
       d="M 247.46982,343.10568 C 253.58877,347.66816 255.50764,341.98259 256.13964,340.37827"
       id="path74139"
       sodipodi:nodetypes="cc" />
    <text
       xml:space="preserve"
       style="font-size:10.80207539px;font-style:normal;font-weight:normal;text-align:center;text-anchor:middle;fill:black;fill-opacity:1;stroke:none;stroke-width:1px;stroke-linecap:butt;stroke-linejoin:miter;stroke-opacity:1;font-family:Bitstream Vera Sans"
       x="248.39993"
       y="326.68121"
       id="text69666"
       transform="scale(0.995232,1.00479)"><tspan
         sodipodi:role="line"
         id="tspan69668"
         x="248.39993"
         y="326.68121">DISTRITO</tspan><tspan
         sodipodi:role="line"
         x="248.39993"
         y="340.18381"
         id="tspan69670">SUDOESTE</tspan></text>
    <path
       style="fill:none;fill-rule:evenodd;stroke:red;stroke-width:0.45008785;stroke-linecap:butt;stroke-linejoin:miter;stroke-miterlimit:4;stroke-dasharray:none;stroke-opacity:1"
       d="M 264.46391,353.82503 C 261.17939,353.43432 257.71177,356.314 257.17625,359.91413"
       id="path75026"
       sodipodi:nodetypes="cc" />
    <path
       style="fill:none;fill-rule:evenodd;stroke:red;stroke-width:0.45008785;stroke-linecap:butt;stroke-linejoin:miter;stroke-miterlimit:4;stroke-dasharray:none;stroke-opacity:1"
       d="M 260.06618,355.03017 C 260.86527,352.86346 259.78498,351.81061 258.11862,350.78049"
       id="path75029"
       sodipodi:nodetypes="cc" />
    <path
       style="fill:none;fill-rule:evenodd;stroke:red;stroke-width:0.45008785;stroke-linecap:butt;stroke-linejoin:miter;stroke-miterlimit:4;stroke-dasharray:none;stroke-opacity:1"
       d="M 257.23028,354.61789 C 259.16022,356.19343 260.7814,352.9206 257.35595,352.08076"
       id="path75031"
       sodipodi:nodetypes="cc" />
    <path
       style="fill:none;fill-rule:evenodd;stroke:red;stroke-width:0.45008785;stroke-linecap:butt;stroke-linejoin:miter;stroke-miterlimit:4;stroke-dasharray:none;stroke-opacity:1"
       d="M 256.28792,353.85674 C 253.19187,356.06658 252.80265,350.06633 255.47121,351.00248"
       id="path75033"
       sodipodi:nodetypes="cc" />
    <path
       style="fill:none;fill-rule:evenodd;stroke:red;stroke-width:0.45008785;stroke-linecap:butt;stroke-linejoin:miter;stroke-miterlimit:4;stroke-dasharray:none;stroke-opacity:1"
       d="M 256.22509,347.13337 C 256.33134,344.32314 250.70686,346.678 255.65969,349.60707"
       id="path75035"
       sodipodi:nodetypes="cc" />
    <path
       style="fill:none;fill-rule:evenodd;stroke:red;stroke-width:0.45008785;stroke-linecap:butt;stroke-linejoin:miter;stroke-miterlimit:4;stroke-dasharray:none;stroke-opacity:1"
       d="M 164.85528,201.91469 C 166.69909,205.77126 170.28776,200.87237 167.1798,199.75813"
       id="path75037"
       sodipodi:nodetypes="cc" />
    <path
       style="fill:none;fill-rule:evenodd;stroke:red;stroke-width:0.45008785;stroke-linecap:butt;stroke-linejoin:miter;stroke-miterlimit:4;stroke-dasharray:none;stroke-opacity:1"
       d="M 164.90443,196.87077 C 166.74824,193.01419 170.33691,197.91309 167.22894,199.02733"
       id="path75924"
       sodipodi:nodetypes="cc" />
    <path
       style="fill:none;fill-rule:evenodd;stroke:red;stroke-width:0.45008785;stroke-linecap:butt;stroke-linejoin:miter;stroke-miterlimit:4;stroke-dasharray:none;stroke-opacity:1"
       d="M 163.86375,201.88435 C 162.01994,205.74093 158.43127,200.84203 161.53924,199.72779"
       id="path75926"
       sodipodi:nodetypes="cc" />
    <path
       style="fill:none;fill-rule:evenodd;stroke:red;stroke-width:0.45008785;stroke-linecap:butt;stroke-linejoin:miter;stroke-miterlimit:4;stroke-dasharray:none;stroke-opacity:1"
       d="M 163.73811,196.87077 C 161.8943,193.01419 158.30563,197.91309 161.41359,199.02733"
       id="path75928"
       sodipodi:nodetypes="cc" />
    <path
       style="fill:none;fill-rule:evenodd;stroke:red;stroke-width:0.45008785;stroke-linecap:butt;stroke-linejoin:miter;stroke-miterlimit:4;stroke-dasharray:none;stroke-opacity:1"
       d="M 164.98093,206.48151 C 165.89134,204.44962 167.53139,204.36236 168.43629,203.3101 C 169.34119,202.25785 170.24152,200.83079 171.82882,199.82156"
       id="path75930"
       sodipodi:nodetypes="czc" />
    <path
       style="fill:none;fill-rule:evenodd;stroke:red;stroke-width:0.45008785;stroke-linecap:butt;stroke-linejoin:miter;stroke-miterlimit:4;stroke-dasharray:none;stroke-opacity:1"
       d="M 164.69822,192.36875 C 165.60864,194.40064 167.24869,194.4879 168.15359,195.54016 C 169.05848,196.59241 169.95881,198.01947 171.54612,199.0287"
       id="path76817"
       sodipodi:nodetypes="czc" />
    <path
       style="fill:none;fill-rule:evenodd;stroke:red;stroke-width:0.45008785;stroke-linecap:butt;stroke-linejoin:miter;stroke-miterlimit:4;stroke-dasharray:none;stroke-opacity:1"
       d="M 163.63019,192.36875 C 162.71977,194.40064 161.07972,194.4879 160.17483,195.54016 C 159.26993,196.59241 158.3696,198.01947 156.78229,199.0287"
       id="path76819"
       sodipodi:nodetypes="czc" />
    <path
       style="fill:none;fill-rule:evenodd;stroke:red;stroke-width:0.45008785;stroke-linecap:butt;stroke-linejoin:miter;stroke-miterlimit:4;stroke-dasharray:none;stroke-opacity:1"
       d="M 163.81867,206.25951 C 162.90826,204.22763 161.26821,204.14036 160.36331,203.08811 C 159.45841,202.03585 158.55809,200.6088 156.97078,199.59956"
       id="path76821"
       sodipodi:nodetypes="czc" />
    <text
       xml:space="preserve"
       style="font-size:7.2013998px;font-style:normal;font-weight:normal;fill:black;fill-opacity:1;stroke:none;stroke-width:1px;stroke-linecap:butt;stroke-linejoin:miter;stroke-opacity:1;font-family:Bitstream Vera Sans"
       x="215.69661"
       y="36.455269"
       id="text76823"
       transform="matrix(0.994542,-3.740659e-2,3.705076e-2,1.004094,0,0)"><tspan
         sodipodi:role="line"
         id="tspan76825"
         x="215.69661"
         y="36.455269">Puente Rosario - Victoria</tspan></text>
    <path
       style="fill:none;fill-rule:evenodd;stroke:red;stroke-width:0.45008785;stroke-linecap:butt;stroke-linejoin:miter;stroke-miterlimit:4;stroke-dasharray:none;stroke-opacity:1"
       d="M 319.99314,27.962995 C 282.30125,32.268472 249.14849,28.232735 206.74976,37.126602 C 201.49467,38.698142 167.05001,71.510118 164.28059,80.900638 C 161.55981,90.126258 165.221,201.85711 165.34676,228.54834 C 165.47253,255.23933 175.83803,269.55956 187.05322,284.00041 C 196.75484,296.49237 239.05163,336.43225 252.46508,347.45617 C 254.28949,348.95557 256.19619,349.92473 256.77084,350.22311 C 258.39024,351.06394 260.38835,352.12341 262.48626,352.67728 C 266.08556,353.62754 269.97862,353.57553 272.75696,353.97624 C 277.89904,354.42792 320.41467,356.38542 335.66086,353.53225 C 338.03846,351.89986 338.07739,351.50068 338.82366,349.66468 C 339.63275,347.67413 338.41438,336.17284 339.29392,330.08374 C 340.17346,323.99464 342.47274,324.10005 342.65936,321.14939 C 342.85729,318.02003 335.82224,296.97831 335.74863,291.8456 C 335.67502,286.35408 340.21811,266.28251 341.71698,262.9858 C 343.14881,259.83653 345.17235,256.96014 345.17235,256.96014"
       id="path73248"
       sodipodi:nodetypes="cczzzszscczzzzzc" />
    <path
       style="fill:none;fill-rule:evenodd;stroke:red;stroke-width:0.45008785;stroke-linecap:butt;stroke-linejoin:miter;stroke-miterlimit:4;stroke-dasharray:none;stroke-opacity:1"
       d="M 320.67828,27.034275 C 297.98638,30.804032 248.57836,27.123785 206.53678,36.196222 C 201.28169,37.767762 166.30394,70.938538 163.53452,80.329068 C 160.81374,89.554678 164.11955,201.10613 164.24531,227.79736 C 164.37107,254.48835 173.49271,268.09097 184.7079,282.53182 C 194.21843,294.77773 237.26035,335.42144 251.9651,347.93461 C 254.30081,349.92219 255.67025,351.3269 256.57941,351.79533 C 257.44348,352.24053 260.77944,353.1774 262.98705,353.57439 C 265.61363,354.04671 268.26272,354.24154 270.65216,354.58617 C 275.54294,355.29156 331.71781,357.37701 336.4925,354.07875 C 340.69201,351.1778 340.01069,345.45252 340.01069,345.45252 C 340.01069,345.45252 339.13115,336.31887 340.01069,330.22977 C 340.89023,324.14067 343.34226,324.04678 343.52888,321.09612 C 343.72681,317.96677 336.56611,296.29077 336.4925,291.15805 C 336.41889,285.66653 341.02481,266.54639 342.52368,263.24967 C 343.95551,260.1004 346.04187,257.16058 346.04187,257.16058"
       id="path72361"
       sodipodi:nodetypes="cczzzszszzczzzzc" />
  </g>
</svg>
